<mxfile host="app.diagrams.net" agent="Mozilla/5.0 (Windows NT 10.0; Win64; x64) AppleWebKit/537.36 (KHTML, like Gecko) Chrome/139.0.0.0 Safari/537.36 Edg/139.0.0.0" version="28.1.0">
  <diagram name="Page-1" id="LG-8zziWAP50YluwudRv">
    <mxGraphModel dx="872" dy="495" grid="1" gridSize="10" guides="1" tooltips="1" connect="1" arrows="1" fold="1" page="1" pageScale="1" pageWidth="827" pageHeight="1169" math="0" shadow="0">
      <root>
        <mxCell id="0" />
        <mxCell id="1" parent="0" />
        <mxCell id="Nj2G2MHLcKjuTOHaNDjG-1" value="Consult activity grades" style="ellipse;whiteSpace=wrap;html=1;" vertex="1" parent="1">
          <mxGeometry x="290" y="140" width="140" height="70" as="geometry" />
        </mxCell>
        <mxCell id="Nj2G2MHLcKjuTOHaNDjG-2" value="Consult class average" style="ellipse;whiteSpace=wrap;html=1;" vertex="1" parent="1">
          <mxGeometry x="330" y="250" width="140" height="70" as="geometry" />
        </mxCell>
        <mxCell id="Nj2G2MHLcKjuTOHaNDjG-3" value="Consult lowest activity grade" style="ellipse;whiteSpace=wrap;html=1;" vertex="1" parent="1">
          <mxGeometry x="330" y="30" width="140" height="70" as="geometry" />
        </mxCell>
        <mxCell id="Nj2G2MHLcKjuTOHaNDjG-4" value="Consult highest activity grade" style="ellipse;whiteSpace=wrap;html=1;" vertex="1" parent="1">
          <mxGeometry x="490" y="150" width="140" height="70" as="geometry" />
        </mxCell>
        <mxCell id="Nj2G2MHLcKjuTOHaNDjG-5" value="Student" style="shape=umlActor;verticalLabelPosition=bottom;verticalAlign=top;html=1;" vertex="1" parent="1">
          <mxGeometry x="150" y="140" width="30" height="60" as="geometry" />
        </mxCell>
        <mxCell id="Nj2G2MHLcKjuTOHaNDjG-7" value="&amp;lt;extend&amp;gt;" style="endArrow=open;endSize=12;dashed=1;html=1;rounded=0;exitX=0.764;exitY=0.943;exitDx=0;exitDy=0;exitPerimeter=0;" edge="1" parent="1" source="Nj2G2MHLcKjuTOHaNDjG-3" target="Nj2G2MHLcKjuTOHaNDjG-1">
          <mxGeometry width="160" relative="1" as="geometry">
            <mxPoint x="330" y="260" as="sourcePoint" />
            <mxPoint x="490" y="260" as="targetPoint" />
          </mxGeometry>
        </mxCell>
        <mxCell id="Nj2G2MHLcKjuTOHaNDjG-8" value="&amp;lt;extend&amp;gt;" style="endArrow=open;endSize=12;dashed=1;html=1;rounded=0;" edge="1" parent="1">
          <mxGeometry width="160" relative="1" as="geometry">
            <mxPoint x="490.296332468738" y="179.7829076524033" as="sourcePoint" />
            <mxPoint x="429.65260331469926" y="176.48263016573492" as="targetPoint" />
          </mxGeometry>
        </mxCell>
        <mxCell id="Nj2G2MHLcKjuTOHaNDjG-9" value="&amp;lt;extend&amp;gt;" style="endArrow=open;endSize=12;dashed=1;html=1;rounded=0;exitX=0.357;exitY=0;exitDx=0;exitDy=0;exitPerimeter=0;entryX=0.707;entryY=0.986;entryDx=0;entryDy=0;entryPerimeter=0;" edge="1" parent="1" source="Nj2G2MHLcKjuTOHaNDjG-2" target="Nj2G2MHLcKjuTOHaNDjG-1">
          <mxGeometry x="0.001" width="160" relative="1" as="geometry">
            <mxPoint x="330" y="260" as="sourcePoint" />
            <mxPoint x="490" y="260" as="targetPoint" />
            <mxPoint as="offset" />
          </mxGeometry>
        </mxCell>
        <mxCell id="Nj2G2MHLcKjuTOHaNDjG-10" style="edgeStyle=orthogonalEdgeStyle;rounded=0;orthogonalLoop=1;jettySize=auto;html=1;exitX=0.5;exitY=0.5;exitDx=0;exitDy=0;exitPerimeter=0;entryX=0.029;entryY=0.643;entryDx=0;entryDy=0;entryPerimeter=0;" edge="1" parent="1" source="Nj2G2MHLcKjuTOHaNDjG-5" target="Nj2G2MHLcKjuTOHaNDjG-1">
          <mxGeometry relative="1" as="geometry" />
        </mxCell>
      </root>
    </mxGraphModel>
  </diagram>
</mxfile>
